#N canvas 429 140 803 439 12;
#X obj 348 266 array define \$0-sample;
#X obj 372 145 soundfiler;
#X obj 378 65 list append \$0-sample;
#X obj 378 118 list trim;
#X obj 380 182 s \$0-samp-size;
#X obj 235 109 list prepend all;
#X obj 235 133 list trim;
#X obj 32 73 tgl 19 0 empty empty empty 0 -10 0 12 #fcfcfc #000000 #000000 0 1;
#X obj 33 114 * 100;
#X obj 46 7205 output~;
#X floatatom 234 35 5 0 0 0 - - - 0;
#X obj 234 58 list prepend size;
#X floatatom 42 12 5 0 0 0 - - - 0;
#X obj 42 35 list prepend in;
#X floatatom 212 248 5 0 0 0 - - - 0;
#X obj 212 271 list prepend speed;
#X msg 99 149 1 60 \$1;
#X obj 100 93 tgl 19 0 empty empty empty 0 -10 0 12 #fcfcfc #000000 #000000 0 1;
#X obj 100 117 * 100;
#X msg 32 146 2 60 \$1;
#X msg 405 227 2 phase 0.666;
#X msg 311 217 3 phase 0.333;
#X obj 82 277 outlet~;
#X obj 381 10 r loadbang-\$1;
#X obj 296 24 i 1;
#X msg 575 29 river.wav;
#X obj 403 94 list prepend read -resize;
#X floatatom 154 232 5 0 0 0 - - - 0;
#X msg 619 74 waves.wav;
#X msg 554 235 1 speed 0.05;
#X obj 82 243 *~ 1.5;
#X msg 546 143 3 speed 1;
#X msg 552 197 2 speed 0.7;
#X msg 378 37 crickets-short.aiff;
#X obj 85 191 clone -s 1 grain-voice~ 2 \$0;
#X connect 1 0 4 0;
#X connect 2 0 26 0;
#X connect 3 0 1 0;
#X connect 5 0 6 0;
#X connect 6 0 34 1;
#X connect 7 0 8 0;
#X connect 8 0 19 0;
#X connect 10 0 11 0;
#X connect 11 0 5 0;
#X connect 12 0 13 0;
#X connect 13 0 5 0;
#X connect 14 0 15 0;
#X connect 15 0 5 0;
#X connect 16 0 34 0;
#X connect 17 0 18 0;
#X connect 18 0 16 0;
#X connect 19 0 34 0;
#X connect 20 0 34 1;
#X connect 21 0 34 1;
#X connect 23 0 33 0;
#X connect 23 0 24 0;
#X connect 23 0 7 0;
#X connect 23 0 17 0;
#X connect 24 0 11 0;
#X connect 25 0 2 0;
#X connect 26 0 3 0;
#X connect 28 0 2 0;
#X connect 29 0 34 1;
#X connect 30 0 22 0;
#X connect 31 0 34 1;
#X connect 32 0 34 1;
#X connect 33 0 2 0;
#X connect 34 0 30 0;
