#N canvas 89 70 1169 732 12;
#X text 26 25 Asa-Box pop ambient synth piece;
#X obj 702 474 sel 0 1 2 3, f 22;
#X obj 717 344 f;
#X obj 749 343 + 1;
#X obj 750 372 moses 4;
#X obj 775 404 t b;
#X obj 775 428 i 0;
#N canvas 63 88 787 505 pop-synth 0;
#X obj 38 21 inlet;
#X text 79 24 notes;
#X obj 37 176 pack 0 0 0;
#X obj 37 320 *~;
#X obj 243 26 inlet;
#X obj 240 221 line~;
#X obj 240 192 pack 0 10;
#X obj 56 411 throw~ outL;
#X obj 138 379 throw~ outR;
#X obj 243 50 route vol pan, f 34;
#X obj 37 270 hip~ 5;
#X obj 43 345 make-stereo 10;
#X obj 367 262 osc~ 0.1;
#X obj 367 286 *~ 0.5;
#X obj 367 310 +~ 0.5;
#X obj 367 334 *~ 40;
#X obj 372 358 +~ 1;
#X obj 28 217 clone -s 1 synth-voice~ 8 \$1;
#X obj 42 145 poly 8 1, f 10;
#X connect 0 0 18 0;
#X connect 2 0 17 0;
#X connect 3 0 11 0;
#X connect 4 0 9 0;
#X connect 5 0 3 1;
#X connect 6 0 5 0;
#X connect 9 0 6 0;
#X connect 10 0 3 0;
#X connect 11 0 7 0;
#X connect 11 1 8 0;
#X connect 12 0 13 0;
#X connect 13 0 14 0;
#X connect 14 0 15 0;
#X connect 15 0 16 0;
#X connect 16 0 11 1;
#X connect 17 0 10 0;
#X connect 18 0 2 0;
#X connect 18 1 2 1;
#X connect 18 2 2 2;
#X restore 718 639 pd pop-synth;
#X msg 1007 520 pan 0.5;
#X obj 723 237 del 5000;
#X obj 306 440 note-burst;
#X obj 423 498 unpack;
#X obj 453 581 pack 0 0;
#X msg 415 330 dir \$1;
#X obj 415 301 tgl 19 0 empty empty empty 0 -10 0 12 #fcfcfc #000000 #000000 0 1;
#X msg 582 307 48 100;
#X obj 390 175 + 24;
#X msg 392 135 0;
#X floatatom 390 223 5 0 0 0 - - - 0;
#X obj 390 199 + 4;
#X msg 211 352 velDir \$1;
#X obj 210 321 tgl 19 0 empty empty empty 0 -10 0 12 #fcfcfc #000000 #000000 0 1;
#X msg 262 244 velMin 10;
#X msg 518 404 delMax 100;
#X msg 371 272 set -5 -3 5 7 12 16 19 21 23 26 28;
#X obj 703 541 i;
#X obj 715 266 metro 5000;
#X obj 670 417 t b a;
#X obj 703 497 i 1;
#X obj 740 498 i 0;
#X obj 779 498 i 1;
#X obj 816 500 i 0;
#X obj 477 219 r loadbang-\$1;
#X obj 937 489 r loadbang-\$1;
#X obj 724 210 r loadbang-\$1;
#X msg 915 530 vol 1;
#X obj 676 218 tgl 19 0 empty empty empty 0 -10 0 12 #fcfcfc #000000 #000000 0 1;
#X msg 897 421 a 2;
#X obj 447 541 makenote 100 900;
#N canvas 63 88 766 674 presets 0;
#X obj 19 148 s \$1-messages;
#X obj 18 65 r loadbang-\$1;
#X msg 129 120 r4 16;
#X msg 162 88 r3 16;
#X msg 89 92 r2 16;
#X msg 31 125 r1 16;
#X obj 243 72 r loadbang-\$1;
#X msg 243 96 s1 0.5;
#X msg 282 123 s3 0.5;
#X obj 249 158 s \$1-messages;
#X text 23 34 releases;
#X text 257 32 sustain;
#X obj 279 340 r loadbang-\$1;
#X msg 122 398 s2 0;
#X obj 172 440 s \$1-messages;
#X msg 264 391 s4 0;
#X obj 512 373 s \$1-messages;
#X obj 492 205 r loadbang-\$1;
#X obj 494 164 s \$1-messages;
#X msg 534 108 a2 0.01;
#X msg 626 104 a4 0.01;
#X obj 493 81 r loadbang-\$1;
#X msg 353 398 d4 0.5;
#X msg 472 123 a1 0.05;
#X msg 596 136 a3 0.05;
#X msg 104 269 amp1 0.3;
#X msg 98 310 amp2 0.3;
#X obj 486 493 r loadbang-\$1;
#X msg 486 517 vel1 0.9;
#X msg 572 519 vel3 0.9;
#X obj 500 579 s \$1-messages;
#X msg 595 553 vel4 0.3;
#X msg 512 555 vel2 0.3;
#X msg 346 241 modAmt 0.2;
#X msg 74 369 amp4 0.1;
#X msg 202 339 amp2 0.1;
#X msg 640 254 index3 1.01;
#X msg 657 297 index4 2.001;
#X msg 508 297 index2 8;
#X msg 184 299 d2 0.1;
#X connect 1 0 5 0;
#X connect 1 0 4 0;
#X connect 1 0 3 0;
#X connect 1 0 2 0;
#X connect 2 0 0 0;
#X connect 3 0 0 0;
#X connect 4 0 0 0;
#X connect 5 0 0 0;
#X connect 6 0 7 0;
#X connect 6 0 8 0;
#X connect 7 0 9 0;
#X connect 8 0 9 0;
#X connect 12 0 13 0;
#X connect 12 0 39 0;
#X connect 12 0 15 0;
#X connect 12 0 22 0;
#X connect 12 0 34 0;
#X connect 12 0 35 0;
#X connect 13 0 14 0;
#X connect 15 0 14 0;
#X connect 17 0 38 0;
#X connect 17 0 36 0;
#X connect 17 0 37 0;
#X connect 17 0 33 0;
#X connect 19 0 18 0;
#X connect 20 0 18 0;
#X connect 21 0 23 0;
#X connect 21 0 19 0;
#X connect 21 0 20 0;
#X connect 21 0 24 0;
#X connect 22 0 14 0;
#X connect 23 0 18 0;
#X connect 24 0 18 0;
#X connect 25 0 14 0;
#X connect 26 0 14 0;
#X connect 27 0 28 0;
#X connect 27 0 29 0;
#X connect 27 0 32 0;
#X connect 27 0 31 0;
#X connect 28 0 30 0;
#X connect 29 0 30 0;
#X connect 31 0 30 0;
#X connect 32 0 30 0;
#X connect 33 0 16 0;
#X connect 34 0 14 0;
#X connect 35 0 14 0;
#X connect 36 0 16 0;
#X connect 37 0 16 0;
#X connect 38 0 16 0;
#X connect 39 0 14 0;
#X restore 91 428 pd presets;
#X msg 518 433 delCurve -1;
#X msg 525 360 delMin 1250;
#X msg 627 345 53 100;
#X msg 280 290 velMax 120;
#X msg 271 318 velCurve 1;
#X connect 1 0 28 0;
#X connect 1 1 29 0;
#X connect 1 2 30 0;
#X connect 1 3 31 0;
#X connect 2 0 3 0;
#X connect 2 0 27 0;
#X connect 3 0 4 0;
#X connect 4 0 2 1;
#X connect 4 1 5 0;
#X connect 5 0 6 0;
#X connect 6 0 2 1;
#X connect 8 0 7 1;
#X connect 9 0 26 0;
#X connect 10 0 11 0;
#X connect 11 0 38 0;
#X connect 11 1 38 1;
#X connect 12 0 7 0;
#X connect 13 0 10 1;
#X connect 14 0 13 0;
#X connect 15 0 10 0;
#X connect 16 0 19 0;
#X connect 17 0 16 0;
#X connect 19 0 18 0;
#X connect 20 0 10 1;
#X connect 21 0 20 0;
#X connect 22 0 10 1;
#X connect 23 0 10 1;
#X connect 24 0 10 1;
#X connect 25 0 13 0;
#X connect 26 0 2 0;
#X connect 27 0 15 0;
#X connect 27 1 1 0;
#X connect 28 0 25 0;
#X connect 29 0 25 0;
#X connect 30 0 25 0;
#X connect 31 0 25 0;
#X connect 32 0 24 0;
#X connect 33 0 35 0;
#X connect 33 0 8 0;
#X connect 34 0 9 0;
#X connect 35 0 7 1;
#X connect 36 0 26 0;
#X connect 37 0 7 1;
#X connect 38 0 12 0;
#X connect 38 1 12 1;
#X connect 40 0 10 1;
#X connect 41 0 10 1;
#X connect 42 0 10 0;
#X connect 43 0 10 1;
#X connect 44 0 10 1;
