#N canvas 200 124 1022 512 12;
#X declare -path Faust_Stuff;
#X declare -path lib;
#X obj 26 55 declare -path Faust_Stuff;
#X obj 26 85 declare -path lib;
#X text 26 25 Asa-Box white noise waves piece;
#X obj 242 55 hsl 162 19 0 127 0 0 empty empty empty -2 -10 0 12 #fcfcfc #000000 #000000 0 1;
#X obj 239 79 / 127;
#X obj 239 103 * 50;
#X obj 239 127 + 1;
#X obj 465 71 hsl 162 19 0 127 0 0 empty empty empty -2 -10 0 12 #fcfcfc #000000 #000000 0 1;
#X obj 461 95 / 127;
#X obj 460 151 + 50;
#X obj 461 119 * 8000;
#X obj 614 151 hsl 162 19 0 127 0 0 empty empty empty -2 -10 0 12 #fcfcfc #000000 #000000 0 1;
#X obj 612 181 / 127;
#X obj 446 339 asa_waves~;
#X obj 479 474 throw~ outL;
#X obj 514 442 throw~ outR;
#X obj 779 271 list prepend lfoRoot;
#X obj 782 139 hsl 162 19 0 127 0 0 empty empty empty -2 -10 0 12 #fcfcfc #000000 #000000 0 1;
#X obj 779 166 / 127;
#X obj 446 304 list trim;
#X obj 27 367 list prepend hipGain;
#X obj 29 243 hsl 162 19 0 127 0 0 empty empty empty -2 -10 0 12 #fcfcfc #000000 #000000 0 1;
#X obj 26 267 / 127;
#X obj 26 291 * 0.5;
#X obj 26 331 clip 0 0.5;
#X obj 27 391 s mess-2-waves;
#X obj 446 277 r mess-2-waves;
#X obj 782 296 s mess-2-waves;
#X obj 214 247 hsl 162 19 0 127 0 0 empty empty empty -2 -10 0 12 #fcfcfc #000000 #000000 0 1;
#X obj 211 271 / 127;
#X obj 212 395 s mess-2-waves;
#X obj 212 371 list prepend lopGain;
#X obj 211 295 * 1;
#X obj 211 335 clip 0 1;
#X obj 607 266 list prepend lfoRate;
#X obj 683 5 hsl 162 19 0 127 0 0 empty empty empty -2 -10 0 12 #fcfcfc #000000 #000000 0 1;
#X obj 680 33 / 127;
#X obj 680 81 list prepend lfoDepth;
#X obj 680 105 s mess-2-waves;
#X obj 680 57 * 1000;
#X obj 779 214 + 10;
#X obj 779 238 mtof;
#X obj 460 175 list prepend lopCut;
#X obj 460 199 s mess-2-waves;
#X obj 607 296 s mess-2-waves;
#X obj 239 151 list prepend filtQ;
#X obj 239 175 s mess-2-waves;
#X floatatom 833 230 5 0 0 0 - - - 0;
#X obj 779 190 * 80;
#X obj 612 205 pow 2;
#X obj 607 236 * 2;
#X obj 93 180 r loadbang-\$1;
#X obj 93 204 f 0;
#X obj 474 397 *~ 1.5;
#X obj 528 391 *~ 1.5;
#N canvas 280 89 710 671 composition 0;
#X text 27 14 phrase;
#X text 219 10 space;
#X text 45 38 generte a phrase;
#X text 46 58 how many times repeat;
#X text 234 32 how long to wait until next phrase;
#X obj 368 306 text define \$0-seq;
#X msg 262 340 tempo 1 sec;
#X msg 32 256 auto;
#X msg 103 264 line 0;
#X obj 66 393 text sequence \$0-seq -w w;
#X obj 238 421 spigot 1;
#X obj 291 392 tgl 19 0 empty empty empty 0 -10 0 12 #fcfcfc #000000 #000000 0 1;
#X obj 54 222 t b b;
#X obj 67 523 outlet;
#X msg 330 241 read phrases/1.txt;
#X obj 198 73 r loadbang-\$1;
#X obj 276 514 + 1;
#X obj 276 538 moses;
#X obj 238 445 t b;
#X obj 340 593 s \$0-re-trig;
#X obj 316 76 r \$0-re-trig;
#N canvas 0 96 1110 510 generate 0;
#X obj 642 162 random 16;
#X obj 642 186 + 1;
#X text 647 142 generate a random amount of loops;
#X obj 412 262 makefilename phrases/%d.txt;
#X obj 412 286 list prepend read;
#X obj 412 310 list trim;
#X obj 412 184 + 1;
#X text 428 134 random slection of phrases;
#X text 190 122 random tempo;
#X obj 183 159 random 10;
#X obj 183 318 list prepend tempo;
#X obj 183 287 list append sec;
#X obj 183 53 t b b b, f 66;
#X obj 183 4 inlet;
#X obj 412 334 outlet;
#X obj 642 210 outlet;
#X text 475 163 number of phrases;
#X obj 183 342 list trim;
#X obj 183 366 outlet;
#X obj 183 183 / 10;
#X obj 183 207 pow 2;
#X obj 183 255 max 0.25;
#X obj 75 429 s set-burst-max-\$1;
#X obj 251 433 s set-burst-min-\$1;
#X obj 75 395 * 1000;
#X obj 255 406 / 3;
#X obj 412 160 random 2;
#X obj 183 231 * 3;
#X obj 412 208 change -1;
#X text 482 211 did it change?;
#X connect 0 0 1 0;
#X connect 1 0 15 0;
#X connect 3 0 4 0;
#X connect 4 0 5 0;
#X connect 5 0 14 0;
#X connect 6 0 28 0;
#X connect 9 0 19 0;
#X connect 10 0 17 0;
#X connect 11 0 10 0;
#X connect 12 0 9 0;
#X connect 12 1 26 0;
#X connect 12 2 0 0;
#X connect 13 0 12 0;
#X connect 17 0 18 0;
#X connect 19 0 20 0;
#X connect 20 0 27 0;
#X connect 21 0 11 0;
#X connect 21 0 24 0;
#X connect 24 0 22 0;
#X connect 24 0 25 0;
#X connect 25 0 23 0;
#X connect 26 0 6 0;
#X connect 27 0 21 0;
#X connect 28 0 3 0;
#X restore 327 163 pd generate;
#X obj 334 502 + 1;
#X obj 225 128 bng 19 250 50 0 empty empty empty 0 -10 0 12 #fcfcfc #000000 #000000;
#X obj 449 204 print loop;
#X obj 190 235 print lol;
#X obj 293 133 t b b;
#X obj 308 564 t b b;
#X obj 256 484 i 1;
#X obj 238 513 i 1;
#X obj 293 459 bng 19 250 50 0 empty empty empty 0 -10 0 12 #fcfcfc #000000 #000000;
#X obj 171 457 bng 19 250 50 0 empty empty empty 0 -10 0 12 #fcfcfc #000000 #000000;
#X obj 48 119 r \$0-re-loop;
#X obj 125 600 s \$0-re-loop;
#X obj 124 572 t b;
#X msg 409 269 write phrases/1.txt;
#X connect 6 0 9 0;
#X connect 7 0 9 0;
#X connect 8 0 9 0;
#X connect 9 0 13 0;
#X connect 9 2 10 0;
#X connect 9 2 31 0;
#X connect 10 0 18 0;
#X connect 11 0 10 1;
#X connect 12 0 7 0;
#X connect 12 1 8 0;
#X connect 14 0 5 0;
#X connect 15 0 26 0;
#X connect 16 0 17 0;
#X connect 17 0 29 1;
#X connect 17 1 27 0;
#X connect 18 0 29 0;
#X connect 18 0 30 0;
#X connect 20 0 26 0;
#X connect 21 0 9 0;
#X connect 21 0 25 0;
#X connect 21 1 5 0;
#X connect 21 2 22 0;
#X connect 21 2 24 0;
#X connect 22 0 17 1;
#X connect 23 0 26 0;
#X connect 26 0 12 0;
#X connect 26 1 21 0;
#X connect 27 0 28 0;
#X connect 27 1 19 0;
#X connect 28 0 29 1;
#X connect 29 0 16 0;
#X connect 29 0 34 0;
#X connect 32 0 12 0;
#X connect 34 0 33 0;
#X connect 35 0 5 0;
#X restore 422 15 pd composition;
#X msg 396 245 stereo 34;
#X connect 3 0 4 0;
#X connect 4 0 5 0;
#X connect 5 0 6 0;
#X connect 6 0 45 0;
#X connect 7 0 8 0;
#X connect 8 0 10 0;
#X connect 9 0 42 0;
#X connect 10 0 9 0;
#X connect 11 0 12 0;
#X connect 12 0 49 0;
#X connect 13 1 53 0;
#X connect 13 2 54 0;
#X connect 16 0 27 0;
#X connect 17 0 18 0;
#X connect 18 0 48 0;
#X connect 19 0 13 0;
#X connect 20 0 25 0;
#X connect 21 0 22 0;
#X connect 22 0 23 0;
#X connect 23 0 24 0;
#X connect 24 0 20 0;
#X connect 26 0 19 0;
#X connect 28 0 29 0;
#X connect 29 0 32 0;
#X connect 31 0 30 0;
#X connect 32 0 33 0;
#X connect 33 0 31 0;
#X connect 34 0 44 0;
#X connect 35 0 36 0;
#X connect 36 0 39 0;
#X connect 37 0 38 0;
#X connect 39 0 37 0;
#X connect 40 0 41 0;
#X connect 41 0 16 0;
#X connect 41 0 47 0;
#X connect 42 0 43 0;
#X connect 45 0 46 0;
#X connect 48 0 40 0;
#X connect 49 0 50 0;
#X connect 50 0 34 0;
#X connect 51 0 52 0;
#X connect 51 0 56 0;
#X connect 52 0 24 0;
#X connect 53 0 14 0;
#X connect 54 0 15 0;
#X connect 56 0 13 0;
