#N canvas 200 124 1022 512 12;
#X declare -path Faust_Stuff;
#X declare -path lib;
#X obj 26 55 declare -path Faust_Stuff;
#X obj 26 85 declare -path lib;
#X text 26 25 Asa-Box white noise waves piece;
#X obj 242 55 hsl 162 19 0 127 0 0 empty empty empty -2 -10 0 12 #fcfcfc #000000 #000000 0 1;
#X obj 239 79 / 127;
#X obj 239 103 * 50;
#X obj 239 127 + 1;
#X obj 465 71 hsl 162 19 0 127 0 0 empty empty empty -2 -10 0 12 #fcfcfc #000000 #000000 0 1;
#X obj 461 95 / 127;
#X obj 460 151 + 50;
#X obj 461 119 * 8000;
#X obj 614 151 hsl 162 19 0 127 0 0 empty empty empty -2 -10 0 12 #fcfcfc #000000 #000000 0 1;
#X obj 612 181 / 127;
#X obj 446 339 asa_waves~;
#X obj 479 474 throw~ outL;
#X obj 514 442 throw~ outR;
#X obj 779 271 list prepend lfoRoot;
#X obj 782 139 hsl 162 19 0 127 0 0 empty empty empty -2 -10 0 12 #fcfcfc #000000 #000000 0 1;
#X obj 779 166 / 127;
#X obj 446 304 list trim;
#X obj 27 367 list prepend hipGain;
#X obj 29 243 hsl 162 19 0 127 0 0 empty empty empty -2 -10 0 12 #fcfcfc #000000 #000000 0 1;
#X obj 26 267 / 127;
#X obj 26 291 * 0.5;
#X obj 26 331 clip 0 0.5;
#X obj 27 391 s mess-2-waves;
#X obj 452 281 r mess-2-waves;
#X obj 782 296 s mess-2-waves;
#X obj 214 247 hsl 162 19 0 127 0 0 empty empty empty -2 -10 0 12 #fcfcfc #000000 #000000 0 1;
#X obj 211 271 / 127;
#X obj 212 395 s mess-2-waves;
#X obj 212 371 list prepend lopGain;
#X obj 211 295 * 1;
#X obj 211 335 clip 0 1;
#X obj 607 266 list prepend lfoRate;
#X obj 683 5 hsl 162 19 0 127 0 0 empty empty empty -2 -10 0 12 #fcfcfc #000000 #000000 0 1;
#X obj 680 33 / 127;
#X obj 680 81 list prepend lfoDepth;
#X obj 680 105 s mess-2-waves;
#X obj 680 57 * 1000;
#X obj 779 214 + 10;
#X obj 779 238 mtof;
#X obj 460 175 list prepend lopCut;
#X obj 460 199 s mess-2-waves;
#X obj 607 296 s mess-2-waves;
#X obj 239 151 list prepend filtQ;
#X obj 239 175 s mess-2-waves;
#X floatatom 833 230 5 0 0 0 - - - 0;
#X obj 779 190 * 80;
#X obj 612 205 pow 2;
#X obj 615 236 * 2;
#X obj 93 180 r loadbang-\$1;
#X obj 93 204 f 0;
#X obj 474 397 *~ 1.5;
#X obj 528 391 *~ 1.5;
#X obj 308 450 output~;
#X msg 396 245 stereo 0;
#X connect 3 0 4 0;
#X connect 4 0 5 0;
#X connect 5 0 6 0;
#X connect 6 0 45 0;
#X connect 7 0 8 0;
#X connect 8 0 10 0;
#X connect 9 0 42 0;
#X connect 10 0 9 0;
#X connect 11 0 12 0;
#X connect 12 0 49 0;
#X connect 13 1 53 0;
#X connect 13 2 54 0;
#X connect 16 0 27 0;
#X connect 17 0 18 0;
#X connect 18 0 48 0;
#X connect 19 0 13 0;
#X connect 20 0 25 0;
#X connect 21 0 22 0;
#X connect 22 0 23 0;
#X connect 23 0 24 0;
#X connect 24 0 20 0;
#X connect 26 0 19 0;
#X connect 28 0 29 0;
#X connect 29 0 32 0;
#X connect 31 0 30 0;
#X connect 32 0 33 0;
#X connect 33 0 31 0;
#X connect 34 0 44 0;
#X connect 35 0 36 0;
#X connect 36 0 39 0;
#X connect 37 0 38 0;
#X connect 39 0 37 0;
#X connect 40 0 41 0;
#X connect 41 0 16 0;
#X connect 41 0 47 0;
#X connect 42 0 43 0;
#X connect 45 0 46 0;
#X connect 48 0 40 0;
#X connect 49 0 50 0;
#X connect 50 0 34 0;
#X connect 51 0 52 0;
#X connect 51 0 56 0;
#X connect 52 0 24 0;
#X connect 53 0 14 0;
#X connect 53 0 55 0;
#X connect 54 0 15 0;
#X connect 54 0 55 1;
#X connect 56 0 13 0;
