#N canvas 271 123 1169 732 12;
#X text 26 25 Asa-Box pop ambient synth piece;
#N canvas 63 88 787 505 pop-synth 0;
#X obj 38 21 inlet;
#X text 79 24 notes;
#X obj 37 176 pack 0 0 0;
#X obj 37 320 *~;
#X obj 243 26 inlet;
#X obj 240 221 line~;
#X obj 240 192 pack 0 10;
#X obj 56 411 throw~ outL;
#X obj 138 379 throw~ outR;
#X obj 243 50 route vol pan, f 34;
#X obj 37 270 hip~ 5;
#X obj 43 345 make-stereo 10;
#X obj 367 286 *~ 0.5;
#X obj 367 310 +~ 0.5;
#X obj 372 358 +~ 1;
#X obj 42 145 poly 8 1, f 10;
#X obj 332 172 grains-main \$1;
#X obj 332 196 *~ 0.15;
#X obj 263 126 r global-vol;
#X obj 368 334 *~ 10;
#X obj 367 262 osc~ 0.1;
#X obj 28 217 clone -s 1 synth-voice~ 6 \$1;
#X connect 0 0 15 0;
#X connect 2 0 21 0;
#X connect 3 0 11 0;
#X connect 4 0 9 0;
#X connect 5 0 3 1;
#X connect 6 0 5 0;
#X connect 9 0 6 0;
#X connect 10 0 3 0;
#X connect 11 0 7 0;
#X connect 11 1 8 0;
#X connect 12 0 13 0;
#X connect 13 0 19 0;
#X connect 14 0 11 1;
#X connect 15 0 2 0;
#X connect 15 1 2 1;
#X connect 15 2 2 2;
#X connect 16 0 17 0;
#X connect 17 0 11 0;
#X connect 18 0 6 0;
#X connect 19 0 14 0;
#X connect 20 0 12 0;
#X connect 21 0 10 0;
#X restore 388 478 pd pop-synth;
#X msg 677 359 pan 0.5;
#X obj 278 191 unpack;
#X obj 285 261 pack 0 0;
#X obj 486 339 i 0;
#X obj 607 328 r loadbang-\$1;
#X msg 585 369 vol 1;
#X msg 567 260 a 2;
#X obj 279 221 makenote 100 900;
#N canvas 63 88 766 674 presets 0;
#X obj 19 148 s \$1-messages;
#X obj 18 65 r loadbang-\$1;
#X msg 129 120 r4 16;
#X msg 162 88 r3 16;
#X msg 89 92 r2 16;
#X msg 31 125 r1 16;
#X obj 243 72 r loadbang-\$1;
#X msg 243 96 s1 0.5;
#X msg 282 123 s3 0.5;
#X obj 249 158 s \$1-messages;
#X text 23 34 releases;
#X text 257 32 sustain;
#X obj 279 340 r loadbang-\$1;
#X msg 206 379 s2 0;
#X obj 172 440 s \$1-messages;
#X obj 512 373 s \$1-messages;
#X obj 492 205 r loadbang-\$1;
#X obj 494 164 s \$1-messages;
#X msg 534 114 a2 0.01;
#X msg 626 104 a4 0.01;
#X obj 493 81 r loadbang-\$1;
#X obj 486 493 r loadbang-\$1;
#X msg 486 517 vel1 0.9;
#X msg 572 519 vel3 0.9;
#X obj 500 579 s \$1-messages;
#X msg 595 553 vel4 0.3;
#X msg 512 555 vel2 0.3;
#X msg 74 369 amp4 0.1;
#X msg 263 380 s4 0.5;
#X msg 98 310 amp2 0.5;
#X msg 104 270 amp1 0.5;
#X msg 147 233 amp3 0.5;
#X msg 640 254 index3 1.001;
#X msg 472 123 a1 0.3;
#X msg 600 136 a3 0.3;
#X msg 370 371 d2 2;
#X msg 361 400 d4 2;
#X msg 655 299 index4 2.01;
#X msg 355 242 modAmt 0.5;
#X msg 514 315 index2 2.15;
#X connect 1 0 5 0;
#X connect 1 0 4 0;
#X connect 1 0 3 0;
#X connect 1 0 2 0;
#X connect 2 0 0 0;
#X connect 3 0 0 0;
#X connect 4 0 0 0;
#X connect 5 0 0 0;
#X connect 6 0 7 0;
#X connect 6 0 8 0;
#X connect 7 0 9 0;
#X connect 8 0 9 0;
#X connect 12 0 13 0;
#X connect 12 0 35 0;
#X connect 12 0 36 0;
#X connect 12 0 27 0;
#X connect 12 0 31 0;
#X connect 12 0 28 0;
#X connect 13 0 14 0;
#X connect 16 0 39 0;
#X connect 16 0 32 0;
#X connect 16 0 37 0;
#X connect 16 0 38 0;
#X connect 18 0 17 0;
#X connect 19 0 17 0;
#X connect 20 0 33 0;
#X connect 20 0 18 0;
#X connect 20 0 19 0;
#X connect 20 0 34 0;
#X connect 21 0 22 0;
#X connect 21 0 23 0;
#X connect 21 0 26 0;
#X connect 21 0 25 0;
#X connect 22 0 24 0;
#X connect 23 0 24 0;
#X connect 25 0 24 0;
#X connect 26 0 24 0;
#X connect 27 0 14 0;
#X connect 28 0 14 0;
#X connect 29 0 14 0;
#X connect 30 0 14 0;
#X connect 31 0 14 0;
#X connect 32 0 15 0;
#X connect 33 0 17 0;
#X connect 34 0 17 0;
#X connect 35 0 14 0;
#X connect 36 0 14 0;
#X connect 37 0 15 0;
#X connect 38 0 15 0;
#X connect 39 0 15 0;
#X restore 100 134 pd presets;
#N canvas 730 153 710 381 composition 0;
#X text 27 14 phrase;
#X text 219 10 space;
#X text 45 38 generte a phrase;
#X text 46 58 how many times repeat;
#X text 234 32 how long to wait until next phrase;
#X obj 333 159 text define \$0-seq;
#X msg 281 194 tempo 1 sec;
#X msg 111 191 auto;
#X msg 182 199 line 0;
#X obj 72 250 text sequence \$0-seq -w w;
#X obj 244 278 spigot 1;
#X obj 302 245 tgl 19 0 empty empty empty 0 -10 0 12 #fcfcfc #000000 #000000 0 1;
#X obj 133 157 t b b;
#X obj 132 105 bng 19 250 50 0 empty empty empty 0 -10 0 12 #fcfcfc #000000 #000000;
#X obj 110 339 outlet;
#X msg 334 122 write phrases/1.txt;
#X msg 295 94 read phrases/1.txt;
#X obj 211 54 r loadbang-\$1;
#X obj 211 78 t b b b;
#X connect 6 0 9 0;
#X connect 7 0 9 0;
#X connect 8 0 9 0;
#X connect 9 0 14 0;
#X connect 9 2 10 0;
#X connect 10 0 12 0;
#X connect 11 0 10 1;
#X connect 12 0 7 0;
#X connect 12 1 8 0;
#X connect 13 0 12 0;
#X connect 15 0 5 0;
#X connect 16 0 5 0;
#X connect 17 0 18 0;
#X connect 18 0 12 0;
#X connect 18 1 16 0;
#X connect 18 2 6 0;
#X restore 278 63 pd composition;
#N canvas 335 180 944 520 note-busrt-function 0;
#X obj 306 370 note-burst;
#X msg 415 260 dir \$1;
#X obj 415 231 tgl 19 0 empty empty empty 0 -10 0 12 #fcfcfc #000000 #000000 0 1;
#X msg 69 280 velDir \$1;
#X obj 68 249 tgl 19 0 empty empty empty 0 -10 0 12 #fcfcfc #000000 #000000 0 1;
#X msg 150 183 velMin 10;
#X msg 589 181 set -5 -3 5 7 12 16 19 21 23 26 28;
#X obj 589 148 r loadbang-\$1;
#X msg 518 363 delCurve -1;
#X msg 627 275 53 100;
#X msg 103 156 velMax 120;
#X msg 73 208 velCurve 1;
#X obj 269 102 list split 2;
#X msg 531 335 delMax 100;
#X msg 533 290 delMin 50;
#X obj 278 17 inlet;
#X obj 306 394 outlet;
#X connect 0 0 16 0;
#X connect 1 0 0 1;
#X connect 2 0 1 0;
#X connect 3 0 0 1;
#X connect 4 0 3 0;
#X connect 5 0 0 1;
#X connect 6 0 0 1;
#X connect 7 0 6 0;
#X connect 8 0 0 1;
#X connect 9 0 0 0;
#X connect 10 0 0 1;
#X connect 11 0 0 1;
#X connect 12 0 0 0;
#X connect 12 1 1 0;
#X connect 13 0 0 1;
#X connect 14 0 0 1;
#X connect 15 0 12 0;
#X restore 278 157 pd note-busrt-function;
#X obj 278 87 list trim;
#X obj 501 165 s \$1-messages;
#X obj 501 108 list prepend index2;
#X obj 501 132 list trim;
#X obj 501 69 line 1 1;
#X obj 278 127 route burst index2;
#X obj 501 39 pack 0 5000;
#X connect 2 0 1 1;
#X connect 3 0 9 0;
#X connect 3 1 9 1;
#X connect 4 0 1 0;
#X connect 6 0 7 0;
#X connect 6 0 2 0;
#X connect 7 0 1 1;
#X connect 8 0 1 1;
#X connect 9 0 4 0;
#X connect 9 1 4 1;
#X connect 11 0 13 0;
#X connect 12 0 3 0;
#X connect 13 0 18 0;
#X connect 15 0 16 0;
#X connect 16 0 14 0;
#X connect 17 0 15 0;
#X connect 18 0 12 0;
#X connect 18 1 19 0;
#X connect 18 2 3 0;
#X connect 19 0 17 0;
