#N canvas 254 140 1169 732 12;
#X text 26 25 Asa-Box pop ambient synth piece;
#X obj 702 474 sel 0 1 2 3, f 22;
#X obj 717 344 f;
#X obj 749 343 + 1;
#X obj 750 372 moses 4;
#X obj 775 404 t b;
#X obj 775 428 i 0;
#N canvas 63 88 787 505 pop-synth 0;
#X obj 38 21 inlet;
#X text 79 24 notes;
#X obj 37 145 poly 4 1, f 10;
#X obj 37 176 pack 0 0 0;
#X obj 37 320 *~;
#X obj 243 26 inlet;
#X obj 240 221 line~;
#X obj 240 192 pack 0 10;
#X obj 37 432 throw~ outL;
#X obj 117 403 throw~ outR;
#X obj 243 50 route vol pan, f 34;
#X obj 37 371 mono-pan 0.5;
#X obj 37 270 hip~ 5;
#X obj 28 217 clone -s 1 synth-voice~ 4 \$1;
#X connect 0 0 2 0;
#X connect 2 0 3 0;
#X connect 2 1 3 1;
#X connect 2 2 3 2;
#X connect 3 0 13 0;
#X connect 4 0 11 0;
#X connect 5 0 10 0;
#X connect 6 0 4 1;
#X connect 7 0 6 0;
#X connect 10 0 7 0;
#X connect 10 1 11 1;
#X connect 11 0 8 0;
#X connect 11 1 9 0;
#X connect 12 0 4 0;
#X connect 13 0 12 0;
#X restore 718 639 pd pop-synth;
#X msg 1007 520 pan 0.5;
#X obj 723 237 del 5000;
#X obj 306 440 note-burst;
#X obj 423 498 unpack;
#X obj 453 581 pack 0 0;
#X msg 415 330 dir \$1;
#X obj 415 301 tgl 19 0 empty empty empty 0 -10 0 12 #fcfcfc #000000 #000000 0 1;
#X msg 582 307 48 100;
#X obj 390 175 + 24;
#X msg 392 135 0;
#X floatatom 390 223 5 0 0 0 - - - 0;
#X obj 390 199 + 4;
#X msg 211 352 velDir \$1;
#X obj 210 321 tgl 19 0 empty empty empty 0 -10 0 12 #fcfcfc #000000 #000000 0 1;
#X msg 262 290 velMax 90;
#X msg 262 244 velMin 10;
#X msg 260 318 velCurve 0;
#X msg 516 432 delCurve 1;
#X msg 518 404 delMax 100;
#X msg 371 272 set -5 -3 5 7 12 16 19 21 23 26 28;
#X msg 518 358 delMin 250;
#X obj 703 541 i;
#X obj 715 266 metro 5000;
#X obj 670 417 t b a;
#X obj 703 497 i 1;
#X obj 740 498 i 0;
#X obj 779 498 i 1;
#X obj 816 500 i 0;
#X obj 477 219 r loadbang-\$1;
#X obj 937 489 r loadbang-\$1;
#X obj 724 210 r loadbang-\$1;
#X msg 915 530 vol 1;
#X obj 676 218 tgl 19 0 empty empty empty 0 -10 0 12 #fcfcfc #000000 #000000 0 1;
#X obj 894 289 s \$1-messages;
#X msg 897 421 a 2;
#X obj 874 121 r loadbang-\$1;
#X msg 727 157 modAmt 1;
#X obj 695 14 r loadbang-\$1;
#X msg 538 72 s2 0;
#X obj 588 114 s \$1-messages;
#X msg 680 65 s4 0;
#X msg 472 43 amp4 0.5;
#X msg 452 84 amp2 0.5;
#X msg 876 56 a1 0.01;
#X obj 876 80 s \$1-messages;
#X msg 916 24 a2 0.01;
#X msg 968 52 a3 0.01;
#X msg 1008 20 a4 0.01;
#X obj 875 -3 r loadbang-\$1;
#X obj 447 541 makenote 100 900;
#X obj 43 190 s \$1-messages;
#X obj 42 107 r loadbang-\$1;
#X msg 774 68 d4 1;
#X msg 640 82 d2 1;
#X msg 870 176 index2 2.01;
#X obj 302 31 r loadbang-\$1;
#X msg 302 55 s1 0.5;
#X msg 341 82 s3 0.5;
#X obj 308 117 s \$1-messages;
#X msg 153 162 r4 16;
#X msg 186 130 r3 16;
#X msg 113 134 r2 16;
#X msg 55 167 r1 16;
#X msg 1008 170 index3 1.01;
#X msg 1025 213 index4 3;
#X connect 1 0 32 0;
#X connect 1 1 33 0;
#X connect 1 2 34 0;
#X connect 1 3 35 0;
#X connect 2 0 3 0;
#X connect 2 0 31 0;
#X connect 3 0 4 0;
#X connect 4 0 2 1;
#X connect 4 1 5 0;
#X connect 5 0 6 0;
#X connect 6 0 2 1;
#X connect 8 0 7 1;
#X connect 9 0 30 0;
#X connect 10 0 11 0;
#X connect 11 0 57 0;
#X connect 11 1 57 1;
#X connect 12 0 7 0;
#X connect 13 0 10 1;
#X connect 14 0 13 0;
#X connect 15 0 10 0;
#X connect 16 0 19 0;
#X connect 17 0 16 0;
#X connect 19 0 18 0;
#X connect 20 0 10 1;
#X connect 21 0 20 0;
#X connect 22 0 10 1;
#X connect 23 0 10 1;
#X connect 24 0 10 1;
#X connect 25 0 10 1;
#X connect 26 0 10 1;
#X connect 27 0 10 1;
#X connect 28 0 10 1;
#X connect 29 0 13 0;
#X connect 30 0 2 0;
#X connect 31 0 15 0;
#X connect 31 1 1 0;
#X connect 32 0 29 0;
#X connect 33 0 29 0;
#X connect 34 0 29 0;
#X connect 35 0 29 0;
#X connect 36 0 27 0;
#X connect 37 0 39 0;
#X connect 37 0 8 0;
#X connect 38 0 9 0;
#X connect 39 0 7 1;
#X connect 40 0 30 0;
#X connect 42 0 7 1;
#X connect 43 0 62 0;
#X connect 43 0 71 0;
#X connect 43 0 72 0;
#X connect 43 0 44 0;
#X connect 44 0 41 0;
#X connect 45 0 46 0;
#X connect 45 0 61 0;
#X connect 45 0 48 0;
#X connect 45 0 60 0;
#X connect 45 0 49 0;
#X connect 45 0 50 0;
#X connect 46 0 47 0;
#X connect 48 0 47 0;
#X connect 49 0 47 0;
#X connect 50 0 47 0;
#X connect 51 0 52 0;
#X connect 53 0 52 0;
#X connect 54 0 52 0;
#X connect 55 0 52 0;
#X connect 56 0 51 0;
#X connect 56 0 53 0;
#X connect 56 0 55 0;
#X connect 56 0 54 0;
#X connect 57 0 12 0;
#X connect 57 1 12 1;
#X connect 59 0 70 0;
#X connect 59 0 69 0;
#X connect 59 0 68 0;
#X connect 59 0 67 0;
#X connect 60 0 47 0;
#X connect 61 0 47 0;
#X connect 62 0 41 0;
#X connect 63 0 64 0;
#X connect 63 0 65 0;
#X connect 64 0 66 0;
#X connect 65 0 66 0;
#X connect 67 0 58 0;
#X connect 68 0 58 0;
#X connect 69 0 58 0;
#X connect 70 0 58 0;
#X connect 71 0 41 0;
#X connect 72 0 41 0;
