#N canvas 369 140 1071 732 12;
#X declare -path Faust_Stuff;
#N canvas 390 175 634 410 init 0;
#X obj 8 30 loadbang;
#X obj 8 54 t b b b b b;
#X msg 62 110 \; pd dsp 1;
#X connect 0 0 1 0;
#X connect 1 3 2 0;
#X restore 26 84 pd init;
#X obj 26 55 declare -path Faust_Stuff;
#X text 26 25 Asa-Box main patch;
#X obj 465 586 dac~ 1 2;
#X obj 234 69 hsl 162 19 0 127 0 0 empty empty empty -2 -10 0 12 #fcfcfc #000000 #000000 0 1;
#X obj 231 93 / 127;
#X obj 231 117 * 50;
#X obj 231 141 + 1;
#X obj 460 85 hsl 162 19 0 127 0 0 empty empty empty -2 -10 0 12 #fcfcfc #000000 #000000 0 1;
#X obj 453 109 / 127;
#X obj 452 165 + 50;
#X obj 453 133 * 8000;
#X obj 577 142 hsl 162 19 0 127 0 0 empty empty empty -2 -10 0 12 #fcfcfc #000000 #000000 0 1;
#X obj 570 166 / 127;
#X msg 210 171 filtQ \$1;
#X msg 432 187 lopCut \$1;
#X msg 549 244 lfoRate \$1;
#X obj 570 190 * 1;
#X floatatom 505 159 5 0 0 0 - - - 0;
#X obj 423 28 loadbang;
#X msg 423 52 5000;
#X msg 515 212 0.4;
#X obj 356 421 test_synth~;
#X obj 443 489 *~ 1;
#X obj 108 171 loadbang;
#X obj 108 235 metro 1000;
#X msg 125 281 60;
#X obj 138 342 makenote 100 300;
#X obj 152 383 pack 0 0;
#X obj 407 329;
#N canvas 63 88 935 658 faust-note 0;
#X obj 126 135 unpack, f 12;
#X obj 126 199 mtof;
#X obj 290 287 / 127;
#X obj 127 368 list prepend freq;
#X obj 289 390 list prepend gain;
#X obj 390 167 t a a;
#X obj 441 395 list prepend gate;
#X obj 446 204 > 0;
#X obj 290 311 spigot 0;
#X obj 127 325 spigot 0;
#X obj 441 234 t a a a;
#X obj 179 465 list trim;
#X obj 133 84 inlet;
#X obj 179 489 outlet;
#X connect 0 0 1 0;
#X connect 0 1 5 0;
#X connect 1 0 9 0;
#X connect 2 0 8 0;
#X connect 3 0 11 0;
#X connect 4 0 11 0;
#X connect 5 0 2 0;
#X connect 5 1 7 0;
#X connect 6 0 11 0;
#X connect 7 0 10 0;
#X connect 8 0 4 0;
#X connect 9 0 3 0;
#X connect 10 0 6 0;
#X connect 10 1 9 1;
#X connect 10 2 8 1;
#X connect 11 0 13 0;
#X connect 12 0 0 0;
#X restore 343 387 pd faust-note;
#X connect 4 0 5 0;
#X connect 5 0 6 0;
#X connect 6 0 7 0;
#X connect 7 0 14 0;
#X connect 8 0 9 0;
#X connect 9 0 11 0;
#X connect 10 0 15 0;
#X connect 11 0 10 0;
#X connect 11 0 18 0;
#X connect 12 0 13 0;
#X connect 13 0 17 0;
#X connect 17 0 16 0;
#X connect 19 0 20 0;
#X connect 19 0 21 0;
#X connect 20 0 15 0;
#X connect 21 0 16 0;
#X connect 22 1 23 0;
#X connect 23 0 3 0;
#X connect 23 0 3 1;
#X connect 24 0 25 0;
#X connect 25 0 26 0;
#X connect 26 0 27 0;
#X connect 27 0 28 0;
#X connect 27 1 28 1;
#X connect 28 0 30 0;
#X connect 30 0 22 0;
