#N canvas 280 440 924 530 12;
#X declare -path Faust_Stuff;
#N canvas 390 175 634 410 init 0;
#X obj 8 30 loadbang;
#X obj 8 54 t b b b b b;
#X msg 62 110 \; pd dsp 1;
#X connect 0 0 1 0;
#X connect 1 3 2 0;
#X restore 26 84 pd init;
#X obj 26 55 declare -path Faust_Stuff;
#X text 26 25 Asa-Box main patch;
#X obj 324 362 dac~ 1 2;
#X obj 302 265 *~ 0.5;
#X obj 187 222 asaWave/faustbit~;
#X connect 4 0 3 0;
#X connect 4 0 3 1;
#X connect 5 1 4 0;
