#N canvas 516 285 924 530 12;
#X declare -path Faust_Stuff;
#N canvas 390 175 634 410 init 0;
#X obj 8 30 loadbang;
#X obj 8 54 t b b b b b;
#X msg 62 110 \; pd dsp 1;
#X connect 0 0 1 0;
#X connect 1 3 2 0;
#X restore 26 84 pd init;
#X obj 26 55 declare -path Faust_Stuff;
#X text 26 25 Asa-Box main patch;
#X obj 423 407 dac~ 1 2;
#X obj 234 69 hsl 162 19 0 127 0 0 empty empty empty -2 -10 0 12 #fcfcfc #000000 #000000 0 1;
#X obj 231 93 / 127;
#X obj 231 117 * 50;
#X obj 231 141 + 1;
#X obj 460 85 hsl 162 19 0 127 0 0 empty empty empty -2 -10 0 12 #fcfcfc #000000 #000000 0 1;
#X obj 453 109 / 127;
#X obj 452 165 + 50;
#X obj 453 133 * 8000;
#X obj 577 142 hsl 162 19 0 127 0 0 empty empty empty -2 -10 0 12 #fcfcfc #000000 #000000 0 1;
#X obj 570 166 / 127;
#X obj 272 281 print huh;
#X obj 401 310 *~ 3;
#X msg 210 171 filtQ \$1;
#X msg 432 187 lopCut \$1;
#X msg 549 244 lfoRate \$1;
#X obj 570 190 * 1;
#X obj 272 257 asaWave/faustbit~;
#X connect 4 0 5 0;
#X connect 5 0 6 0;
#X connect 6 0 7 0;
#X connect 7 0 16 0;
#X connect 8 0 9 0;
#X connect 9 0 11 0;
#X connect 10 0 17 0;
#X connect 11 0 10 0;
#X connect 12 0 13 0;
#X connect 13 0 19 0;
#X connect 15 0 3 0;
#X connect 15 0 3 1;
#X connect 16 0 20 0;
#X connect 17 0 20 0;
#X connect 18 0 20 0;
#X connect 19 0 18 0;
#X connect 20 0 14 0;
#X connect 20 1 15 0;
