#N canvas 187 116 1071 732 12;
#X declare -path Faust_Stuff;
#X declare -path lib;
#X obj 664 233 loadbang;
#X obj 658 602 pack 0 0;
#N canvas 924 282 497 390 note-burst 0;
#X restore 93 261 pd note-burst;
#X text 286 9 48 53 55 60;
#X obj 643 494 sel 0 1 2 3, f 22;
#X obj 644 517 i 48;
#X obj 681 518 i 53;
#X obj 720 518 i 55;
#X obj 757 520 i 60;
#X obj 658 364 f;
#X obj 690 363 + 1;
#X obj 691 392 moses 4;
#X obj 716 424 t b;
#X obj 716 448 i 0;
#X obj 656 286 metro 2000;
#X obj 611 283 tgl 19 0 empty empty empty 0 -10 0 12 #fcfcfc #000000 #000000 0 1;
#X obj 644 561 makenote 100 2500;
#N canvas 63 88 787 505 pop-synth 1;
#X obj 38 21 inlet;
#X text 79 24 notes;
#X obj 37 216 clone -s 1 synth-voice~ 4;
#X obj 37 145 poly 4 1, f 10;
#X obj 37 176 pack 0 0 0;
#X obj 37 270 *~;
#X obj 243 26 inlet;
#X obj 240 221 line~;
#X obj 240 192 pack 0 10;
#X obj 37 382 throw~ outL;
#X obj 117 353 throw~ outR;
#X obj 243 50 route vol pan, f 34;
#X obj 37 321 mono-pan 0.5;
#X connect 0 0 3 0;
#X connect 2 0 5 0;
#X connect 3 0 4 0;
#X connect 3 1 4 1;
#X connect 3 2 4 2;
#X connect 4 0 2 0;
#X connect 5 0 12 0;
#X connect 6 0 11 0;
#X connect 7 0 5 1;
#X connect 8 0 7 0;
#X connect 11 0 8 0;
#X connect 11 1 12 1;
#X connect 12 0 9 0;
#X connect 12 1 10 0;
#X restore 659 659 pd pop-synth;
#X obj 517 580 loadbang;
#X obj 571 522 bng 19 250 50 0 empty empty empty 0 -10 0 12 #fcfcfc #000000 #000000;
#X msg 526 633 vol 0.5;
#X msg 587 612 pan 0.5;
#X text 26 25 Asa-Box pop ambient synth piece;
#X obj 664 257 del 5000;
#X obj 26 55 declare -path Faust_Stuff;
#X obj 26 85 declare -path lib;
#X obj 247 460 note-burst;
#X connect 0 0 23 0;
#X connect 1 0 17 0;
#X connect 4 0 5 0;
#X connect 4 1 6 0;
#X connect 4 2 7 0;
#X connect 4 3 8 0;
#X connect 5 0 16 0;
#X connect 6 0 16 0;
#X connect 7 0 16 0;
#X connect 8 0 16 0;
#X connect 9 0 10 0;
#X connect 9 0 4 0;
#X connect 10 0 11 0;
#X connect 11 0 9 1;
#X connect 11 1 12 0;
#X connect 12 0 13 0;
#X connect 13 0 9 1;
#X connect 14 0 9 0;
#X connect 15 0 14 0;
#X connect 16 0 1 0;
#X connect 16 1 1 1;
#X connect 18 0 20 0;
#X connect 18 0 21 0;
#X connect 20 0 17 1;
#X connect 21 0 17 1;
#X connect 23 0 14 0;
