#N canvas 230 58 1169 732 12;
#X declare -path Faust_Stuff;
#X declare -path lib;
#X obj 664 233 loadbang;
#X text 286 9 48 53 55 60;
#X obj 643 494 sel 0 1 2 3, f 22;
#X obj 658 364 f;
#X obj 690 363 + 1;
#X obj 691 392 moses 4;
#X obj 716 424 t b;
#X obj 716 448 i 0;
#X obj 616 236 tgl 19 0 empty empty empty 0 -10 0 12 #fcfcfc #000000 #000000 0 1;
#N canvas 63 88 787 505 pop-synth 0;
#X obj 38 21 inlet;
#X text 79 24 notes;
#X obj 37 145 poly 4 1, f 10;
#X obj 37 176 pack 0 0 0;
#X obj 37 270 *~;
#X obj 243 26 inlet;
#X obj 240 221 line~;
#X obj 240 192 pack 0 10;
#X obj 37 382 throw~ outL;
#X obj 117 353 throw~ outR;
#X obj 243 50 route vol pan, f 34;
#X obj 37 321 mono-pan 0.5;
#X obj 37 216 clone -s 1 synth-voice~ 4;
#X connect 0 0 2 0;
#X connect 2 0 3 0;
#X connect 2 1 3 1;
#X connect 2 2 3 2;
#X connect 3 0 12 0;
#X connect 4 0 11 0;
#X connect 5 0 10 0;
#X connect 6 0 4 1;
#X connect 7 0 6 0;
#X connect 10 0 7 0;
#X connect 10 1 11 1;
#X connect 11 0 8 0;
#X connect 11 1 9 0;
#X connect 12 0 4 0;
#X restore 659 659 pd pop-synth;
#X obj 878 508 loadbang;
#X obj 571 522 bng 19 250 50 0 empty empty empty 0 -10 0 12 #fcfcfc #000000 #000000;
#X msg 856 544 vol 0.5;
#X msg 948 540 pan 0.5;
#X text 26 25 Asa-Box pop ambient synth piece;
#X obj 664 257 del 5000;
#X obj 26 55 declare -path Faust_Stuff;
#X obj 26 85 declare -path lib;
#X obj 247 460 note-burst;
#X obj 364 518 unpack;
#X obj 394 601 pack 0 0;
#X obj 380 560 makenote 100 2500;
#X msg 356 350 dir \$1;
#X obj 356 321 tgl 19 0 empty empty empty 0 -10 0 12 #fcfcfc #000000 #000000 0 1;
#X msg 523 327 48 100;
#X obj 331 195 + 24;
#X msg 333 155 0;
#X floatatom 331 243 5 0 0 0 - - - 0;
#X obj 331 219 + 4;
#X msg 152 372 velDir \$1;
#X obj 151 341 tgl 19 0 empty empty empty 0 -10 0 12 #fcfcfc #000000 #000000 0 1;
#X obj 237 510 print huh;
#X msg 838 441 a 0.01;
#X msg 203 310 velMax 90;
#X msg 203 264 velMin 10;
#X msg 201 338 velCurve 0;
#X msg 457 452 delCurve 1;
#X msg 459 424 delMax 100;
#X msg 312 292 set -5 -3 5 7 12 16 19 21 23 26 28;
#X msg 459 378 delMin 250;
#X obj 644 561 i;
#X obj 656 286 metro 5000;
#X obj 611 437 t b a;
#X obj 644 517 i 1;
#X obj 681 518 i 0;
#X obj 720 518 i 1;
#X obj 757 520 i 0;
#X obj 418 239 loadbang;
#X connect 0 0 15 0;
#X connect 2 0 43 0;
#X connect 2 1 44 0;
#X connect 2 2 45 0;
#X connect 2 3 46 0;
#X connect 3 0 4 0;
#X connect 3 0 42 0;
#X connect 4 0 5 0;
#X connect 5 0 3 1;
#X connect 5 1 6 0;
#X connect 6 0 7 0;
#X connect 7 0 3 1;
#X connect 8 0 41 0;
#X connect 10 0 12 0;
#X connect 10 0 13 0;
#X connect 12 0 9 1;
#X connect 13 0 9 1;
#X connect 15 0 41 0;
#X connect 18 0 19 0;
#X connect 19 0 21 0;
#X connect 19 1 21 1;
#X connect 20 0 9 0;
#X connect 21 0 20 0;
#X connect 21 1 20 1;
#X connect 22 0 18 1;
#X connect 23 0 22 0;
#X connect 24 0 18 0;
#X connect 25 0 28 0;
#X connect 26 0 25 0;
#X connect 28 0 27 0;
#X connect 29 0 18 1;
#X connect 30 0 29 0;
#X connect 32 0 9 1;
#X connect 33 0 18 1;
#X connect 34 0 18 1;
#X connect 35 0 18 1;
#X connect 36 0 18 1;
#X connect 37 0 18 1;
#X connect 38 0 18 1;
#X connect 39 0 18 1;
#X connect 40 0 22 0;
#X connect 41 0 3 0;
#X connect 42 0 24 0;
#X connect 42 1 2 0;
#X connect 43 0 40 0;
#X connect 44 0 40 0;
#X connect 45 0 40 0;
#X connect 46 0 40 0;
#X connect 47 0 38 0;
