#N canvas 362 140 1071 732 12;
#X declare -path Faust_Stuff;
#N canvas 390 175 634 410 init 0;
#X obj 8 30 loadbang;
#X obj 8 54 t b b b b b;
#X msg 62 110 \; pd dsp 1;
#X connect 0 0 1 0;
#X connect 1 3 2 0;
#X restore 26 84 pd init;
#X obj 26 55 declare -path Faust_Stuff;
#X text 26 25 Asa-Box main patch;
#X obj 345 543 dac~ 1 2;
#X obj 234 69 hsl 162 19 0 127 0 0 empty empty empty -2 -10 0 12 #fcfcfc #000000 #000000 0 1;
#X obj 231 93 / 127;
#X obj 231 117 * 50;
#X obj 231 141 + 1;
#X obj 460 85 hsl 162 19 0 127 0 0 empty empty empty -2 -10 0 12 #fcfcfc #000000 #000000 0 1;
#X obj 453 109 / 127;
#X obj 452 165 + 50;
#X obj 453 133 * 8000;
#X obj 577 142 hsl 162 19 0 127 0 0 empty empty empty -2 -10 0 12 #fcfcfc #000000 #000000 0 1;
#X obj 570 166 / 127;
#X msg 210 171 filtQ \$1;
#X msg 432 187 lopCut \$1;
#X msg 549 244 lfoRate \$1;
#X obj 570 190 * 1;
#X floatatom 505 159 5 0 0 0 - - - 0;
#X obj 423 28 loadbang;
#X msg 423 52 5000;
#X msg 515 212 0.4;
#X obj 344 502 *~ 1;
#X obj 664 233 loadbang;
#X obj 658 602 pack 0 0;
#X obj 664 257 del 2000;
#N canvas 924 282 497 390 note-burst 0;
#X restore 272 281 pd note-burst;
#X text 648 333 48 53 55 60;
#X obj 643 494 sel 0 1 2 3, f 22;
#X obj 644 517 i 48;
#X obj 681 518 i 53;
#X obj 720 518 i 55;
#X obj 757 520 i 60;
#X obj 658 364 f;
#X obj 690 363 + 1;
#X obj 691 392 moses 4;
#X obj 716 424 t b;
#X obj 716 448 i 0;
#X obj 656 286 metro 2000;
#X obj 611 283 tgl 19 0 empty empty empty 0 -10 0 12 #fcfcfc #000000 #000000 0 1;
#X obj 644 561 makenote 100 2500;
#N canvas 63 88 787 505 pop-synth 1;
#X obj 38 21 inlet;
#X text 79 24 notes;
#X obj 37 216 clone -s 1 synth-voice~ 4;
#X obj 37 145 poly 4 1, f 10;
#X obj 37 176 pack 0 0 0;
#X obj 37 270 *~;
#X obj 243 26 inlet;
#X obj 240 221 line~;
#X obj 240 192 pack 0 10;
#X obj 37 382 throw~ outL;
#X obj 90 353 throw~ outR;
#X obj 243 50 route vol pan, f 34;
#X obj 37 321 mono-pan;
#X connect 0 0 3 0;
#X connect 2 0 5 0;
#X connect 3 0 4 0;
#X connect 3 1 4 1;
#X connect 3 2 4 2;
#X connect 4 0 2 0;
#X connect 5 0 12 0;
#X connect 6 0 11 0;
#X connect 7 0 5 1;
#X connect 8 0 7 0;
#X connect 11 0 8 0;
#X connect 11 1 12 1;
#X connect 12 0 9 0;
#X connect 12 1 10 0;
#X restore 146 429 pd pop-synth;
#X connect 4 0 5 0;
#X connect 5 0 6 0;
#X connect 6 0 7 0;
#X connect 7 0 14 0;
#X connect 8 0 9 0;
#X connect 9 0 11 0;
#X connect 10 0 15 0;
#X connect 11 0 10 0;
#X connect 11 0 18 0;
#X connect 12 0 13 0;
#X connect 13 0 17 0;
#X connect 17 0 16 0;
#X connect 19 0 20 0;
#X connect 19 0 21 0;
#X connect 20 0 15 0;
#X connect 21 0 16 0;
#X connect 22 0 3 0;
#X connect 22 0 3 1;
#X connect 23 0 25 0;
#X connect 25 0 38 0;
#X connect 28 0 29 0;
#X connect 28 1 30 0;
#X connect 28 2 31 0;
#X connect 28 3 32 0;
#X connect 29 0 40 0;
#X connect 30 0 40 0;
#X connect 31 0 40 0;
#X connect 32 0 40 0;
#X connect 33 0 34 0;
#X connect 33 0 28 0;
#X connect 34 0 35 0;
#X connect 35 0 33 1;
#X connect 35 1 36 0;
#X connect 36 0 37 0;
#X connect 37 0 33 1;
#X connect 38 0 33 0;
#X connect 39 0 38 0;
#X connect 40 0 24 0;
#X connect 40 1 24 1;
