#N canvas 63 88 737 501 12;
#X declare -path Faust_Stuff;
#X declare -path lib;
#X obj 48 451 dac~ 1 2;
#X obj 36 340 catch~ outL;
#X obj 126 341 catch~ outR;
#X obj 36 364 hip~ 5;
#X obj 126 365 hip~ 5;
#N canvas 92 117 450 300 connect 0;
#X restore 29 21 pd connect;
#X obj 36 388 *~;
#X obj 126 389 *~;
#X obj 249 344 lop~ 5;
#X obj 249 246 r mother-vol;
#X obj 369 249 loadbang;
#X obj 369 273 f 0.5;
#X obj 375 307 bng 19 250 50 0 empty empty empty 0 -10 0 12 #fcfcfc #000000 #000000;
#N canvas 390 175 634 410 init 0;
#X obj 8 30 loadbang;
#X obj 8 104 t b b b b b;
#X msg 62 160 \; pd dsp 1;
#X obj 8 54 del 5000;
#X connect 0 0 3 0;
#X connect 1 3 2 0;
#X connect 3 0 1 0;
#X restore 26 124 pd init;
#X obj 26 55 declare -path Faust_Stuff;
#X obj 26 85 declare -path lib;
#X connect 1 0 3 0;
#X connect 2 0 4 0;
#X connect 3 0 6 0;
#X connect 4 0 7 0;
#X connect 6 0 0 0;
#X connect 7 0 0 1;
#X connect 8 0 7 1;
#X connect 8 0 6 1;
#X connect 9 0 8 0;
#X connect 10 0 11 0;
#X connect 11 0 8 0;
#X connect 12 0 11 0;
