#N canvas 476 136 905 589 12;
#X declare -path Faust_Stuff;
#X declare -path lib;
#X obj 48 451 dac~ 1 2;
#X obj 36 340 catch~ outL;
#X obj 126 341 catch~ outR;
#X obj 36 364 hip~ 5;
#X obj 126 365 hip~ 5;
#N canvas 636 307 450 300 connect 1;
#X obj 29 134 netreceive;
#X obj 29 62 r init-connect;
#X msg 28 93 listen 3000;
#X obj 29 162 oscparse;
#X obj 29 186 route vol;
#X obj 29 210 s global-vol;
#X connect 0 0 3 0;
#X connect 1 0 2 0;
#X connect 2 0 0 0;
#X connect 3 0 4 0;
#X connect 4 0 5 0;
#X restore 29 21 pd connect;
#X obj 36 388 *~;
#X obj 126 389 *~;
#X obj 249 344 lop~ 5;
#X obj 249 246 r mother-vol;
#X obj 369 249 loadbang;
#N canvas 390 175 634 410 init 1;
#X obj 8 30 loadbang;
#X obj 8 104 t b b b b b;
#X msg 48 204 \; pd dsp 1;
#X obj 8 54 del 5000;
#X obj 88 140 s load-the-sound;
#X obj 27 246 s loadbang-1;
#X obj 68 169 s init-connect;
#X connect 0 0 3 0;
#X connect 1 1 5 0;
#X connect 1 2 2 0;
#X connect 1 3 6 0;
#X connect 1 4 4 0;
#X connect 3 0 1 0;
#X restore 26 124 pd init;
#X obj 26 55 declare -path Faust_Stuff;
#X obj 26 85 declare -path lib;
#X text 286 9 48 53 55 60;
#N canvas 63 88 450 300 load-sound 0;
#X obj 20 20 main_pop 1;
#X restore 37 294 pd load-sound;
#X obj 382 11 r load-the-sound;
#X msg 186 138 \; pd-load-sound clear \; pd-load-sound obj 20 20 main_waves 1;
#X msg 486 150 \; pd-load-sound clear \;;
#X msg 382 37 \; pd-load-sound clear \; pd-load-sound obj 20 20 main_pop 1;
#X obj 357 420 s pd;
#X obj 372 337 loadbang;
#X msg 357 382 audio-dialog 0 -1 -1 -1 2 0 0 0 0 -1 -1 -1 2 0 0 0 44100 24 0 512;
#X obj 369 273 f 0.5;
#X connect 1 0 3 0;
#X connect 2 0 4 0;
#X connect 3 0 6 0;
#X connect 4 0 7 0;
#X connect 6 0 0 0;
#X connect 7 0 0 1;
#X connect 8 0 7 1;
#X connect 8 0 6 1;
#X connect 9 0 8 0;
#X connect 10 0 23 0;
#X connect 16 0 19 0;
#X connect 21 0 22 0;
#X connect 22 0 20 0;
#X connect 23 0 8 0;
