#N canvas 483 140 804 689 12;
#X obj 15 15 inlet;
#X obj 453 139 text define \$0-txt;
#X obj 69 317 text get \$0-txt;
#X obj 118 159 text size \$0-txt;
#X obj 122 205 i;
#X obj 160 206 + 1;
#X obj 160 230 moses;
#X obj 266 302 s \$0-fb;
#X obj 320 201 r \$0-fb;
#X obj 523 397 del, f 10;
#X msg 537 368 stop;
#X text 57 13 trigger root note;
#X obj 67 539 outlet;
#X obj 69 433 +;
#X obj 69 482 makenote;
#X obj 87 348 r \$0-root-midi;
#X obj 192 375 r \$0-root-vel;
#X obj 15 39 stripnote;
#X obj 14 100 s \$0-root-midi;
#X obj 73 73 s \$0-root-vel;
#X obj 295 22 inlet;
#X text 338 21 messages;
#X obj 295 46 route del del-curve length length-curve;
#X obj 250 115 s \$0-reset;
#X obj 393 566 r \$0-reset;
#X obj 393 590 i 0;
#X obj 430 85 s \$0-len;
#X obj 145 407 r \$0-len;
#N canvas 121 146 450 300 curve 0;
#X obj 267 40 inlet;
#X obj 37 178 outlet;
#X text 314 42 -1 - 1;
#X obj 28 39 inlet;
#X text 68 37 count;
#X obj 142 36 inlet;
#X text 183 39 root;
#X restore 145 431 pd curve;
#X connect 0 0 17 0;
#X connect 2 0 13 0;
#X connect 4 0 5 0;
#X connect 5 0 6 0;
#X connect 10 0 9 0;
#X connect 13 0 14 0;
#X connect 15 0 13 1;
#X connect 17 0 18 0;
#X connect 17 1 19 0;
#X connect 20 0 22 0;
#X connect 22 2 26 0;
#X connect 24 0 25 0;
