#N canvas 150 175 1054 616 12;
#N canvas 63 88 935 658 faust-note 0;
#X obj 126 135 unpack, f 12;
#X obj 126 199 mtof;
#X obj 290 287 / 127;
#X obj 127 368 list prepend freq;
#X obj 289 390 list prepend gain;
#X obj 390 167 t a a;
#X obj 441 395 list prepend gate;
#X obj 446 204 > 0;
#X obj 290 311 spigot 0;
#X obj 127 325 spigot 0;
#X obj 441 234 t a a a;
#X obj 179 465 list trim;
#X obj 133 84 inlet;
#X obj 179 489 outlet;
#X connect 0 0 1 0;
#X connect 0 1 5 0;
#X connect 1 0 9 0;
#X connect 2 0 8 0;
#X connect 3 0 11 0;
#X connect 4 0 11 0;
#X connect 5 0 2 0;
#X connect 5 1 7 0;
#X connect 6 0 11 0;
#X connect 7 0 10 0;
#X connect 8 0 4 0;
#X connect 9 0 3 0;
#X connect 10 0 6 0;
#X connect 10 1 9 1;
#X connect 10 2 8 1;
#X connect 11 0 13 0;
#X connect 12 0 0 0;
#X restore 97 74 pd faust-note;
#X obj 207 176 outlet~;
#X obj 100 6 inlet;
#X obj 100 30 t a a;
#N canvas 561 287 879 379 synth-voice 0;
#X obj 171 128 pop_synth~;
#X obj 212 157 *~ 0.5;
#X obj 170 39 inlet;
#X obj 214 269 outlet~;
#X connect 0 1 1 0;
#X connect 1 0 3 0;
#X connect 2 0 0 0;
#X restore 96 111 pd synth-voice;
#X connect 0 0 4 0;
#X connect 2 0 3 0;
#X connect 3 0 0 0;
#X connect 4 0 1 0;
