#N canvas 150 175 1054 616 12;
#N canvas 63 88 935 658 faust-note 0;
#X obj 126 135 unpack, f 12;
#X obj 126 199 mtof;
#X obj 290 287 / 127;
#X obj 390 167 t a a;
#X obj 446 204 > 0;
#X obj 290 311 spigot 0;
#X obj 127 325 spigot 0;
#X obj 441 234 t a a a;
#X obj 179 465 list trim;
#X obj 133 84 inlet;
#X obj 179 489 outlet;
#X obj 150 376 list prepend freq;
#X obj 289 390 list prepend gain;
#X obj 453 396 list prepend gate;
#X connect 0 0 1 0;
#X connect 0 1 3 0;
#X connect 1 0 6 0;
#X connect 2 0 5 0;
#X connect 3 0 2 0;
#X connect 3 1 4 0;
#X connect 4 0 7 0;
#X connect 5 0 12 0;
#X connect 6 0 11 0;
#X connect 7 0 13 0;
#X connect 7 1 6 1;
#X connect 7 2 5 1;
#X connect 8 0 10 0;
#X connect 9 0 0 0;
#X connect 11 0 8 0;
#X connect 12 0 8 0;
#X connect 13 0 8 0;
#X restore 94 141 pd faust-note;
#X obj 210 463 outlet~;
#X obj 100 6 inlet;
#X obj 100 30 t a a;
#X obj 209 416 *~ 0.25;
#X obj 295 41 r \$1-messages;
#X obj 208 375 *~;
#X obj 319 286 line~;
#X obj 312 188 i 0;
#X obj 325 107 t b b b;
#X msg 387 156 stop;
#X obj 357 207 t b b;
#X obj 357 231 i 1;
#X obj 76 90 list store;
#X obj 172 27 unpack;
#X obj 211 62 > 0;
#X obj 211 86 sel 1;
#X obj 365 183 del 5;
#X obj 319 259 pack 0 5;
#X obj 124 236 fix_richFM~;
#X connect 0 0 19 0;
#X connect 2 0 3 0;
#X connect 3 0 13 1;
#X connect 3 1 14 0;
#X connect 4 0 1 0;
#X connect 5 0 19 0;
#X connect 6 0 4 0;
#X connect 7 0 6 1;
#X connect 8 0 18 0;
#X connect 9 0 8 0;
#X connect 9 1 17 0;
#X connect 9 2 10 0;
#X connect 10 0 17 0;
#X connect 11 0 12 0;
#X connect 11 1 13 0;
#X connect 12 0 18 0;
#X connect 13 0 0 0;
#X connect 14 1 15 0;
#X connect 15 0 16 0;
#X connect 16 0 9 0;
#X connect 17 0 11 0;
#X connect 18 0 7 0;
#X connect 19 1 6 0;
